<mxfile host="app.diagrams.net" modified="2023-12-06T19:24:30.884Z" agent="Mozilla/5.0 (X11; Ubuntu; Linux x86_64; rv:120.0) Gecko/20100101 Firefox/120.0" etag="p0-cU7rUKXOo5LdSkrTn" version="22.1.5" type="device">
  <diagram id="ZgK-rg60SdYdkfQ-bzUN" name="Page-1">
    <mxGraphModel dx="1362" dy="-137" grid="1" gridSize="10" guides="1" tooltips="1" connect="1" arrows="1" fold="1" page="1" pageScale="1" pageWidth="1169" pageHeight="827" math="0" shadow="0">
      <root>
        <mxCell id="0" />
        <mxCell id="1" parent="0" />
        <mxCell id="8QPdw4msQSsCbI8SWVOe-16" value="" style="rounded=1;whiteSpace=wrap;html=1;" parent="1" vertex="1">
          <mxGeometry x="120" y="880" width="760" height="400" as="geometry" />
        </mxCell>
        <mxCell id="8QPdw4msQSsCbI8SWVOe-12" style="edgeStyle=orthogonalEdgeStyle;rounded=0;orthogonalLoop=1;jettySize=auto;html=1;exitX=1;exitY=0;exitDx=0;exitDy=0;entryX=0;entryY=0.25;entryDx=0;entryDy=0;strokeWidth=2;endArrow=blockThin;endFill=1;" parent="1" source="8QPdw4msQSsCbI8SWVOe-1" target="8QPdw4msQSsCbI8SWVOe-6" edge="1">
          <mxGeometry relative="1" as="geometry" />
        </mxCell>
        <mxCell id="8QPdw4msQSsCbI8SWVOe-1" value="&lt;font style=&quot;font-size: 22px&quot;&gt;/color_controller&lt;/font&gt;" style="ellipse;whiteSpace=wrap;html=1;fillColor=#60a917;strokeColor=#2D7600;fontColor=#ffffff;" parent="1" vertex="1">
          <mxGeometry x="160" y="960" width="200" height="80" as="geometry" />
        </mxCell>
        <mxCell id="8QPdw4msQSsCbI8SWVOe-10" style="edgeStyle=orthogonalEdgeStyle;rounded=0;orthogonalLoop=1;jettySize=auto;html=1;exitX=1;exitY=0.5;exitDx=0;exitDy=0;entryX=0;entryY=0.5;entryDx=0;entryDy=0;strokeWidth=2;endArrow=blockThin;endFill=1;" parent="1" source="8QPdw4msQSsCbI8SWVOe-2" target="8QPdw4msQSsCbI8SWVOe-5" edge="1">
          <mxGeometry relative="1" as="geometry" />
        </mxCell>
        <mxCell id="8QPdw4msQSsCbI8SWVOe-2" value="&lt;font style=&quot;font-size: 22px&quot;&gt;/move_controller&lt;/font&gt;" style="ellipse;whiteSpace=wrap;html=1;fillColor=#60a917;strokeColor=#2D7600;fontColor=#ffffff;" parent="1" vertex="1">
          <mxGeometry x="160" y="1120" width="200" height="80" as="geometry" />
        </mxCell>
        <mxCell id="8QPdw4msQSsCbI8SWVOe-14" style="edgeStyle=orthogonalEdgeStyle;rounded=0;orthogonalLoop=1;jettySize=auto;html=1;exitX=0;exitY=0;exitDx=0;exitDy=0;entryX=1;entryY=0.75;entryDx=0;entryDy=0;strokeWidth=2;endArrow=blockThin;endFill=1;" parent="1" source="8QPdw4msQSsCbI8SWVOe-4" target="8QPdw4msQSsCbI8SWVOe-6" edge="1">
          <mxGeometry relative="1" as="geometry">
            <Array as="points">
              <mxPoint x="669" y="1010" />
            </Array>
          </mxGeometry>
        </mxCell>
        <mxCell id="8QPdw4msQSsCbI8SWVOe-4" value="&lt;font style=&quot;font-size: 22px&quot;&gt;/turtlesim&lt;/font&gt;" style="ellipse;whiteSpace=wrap;html=1;fillColor=#f8cecc;strokeColor=#b85450;" parent="1" vertex="1">
          <mxGeometry x="640" y="1040" width="200" height="80" as="geometry" />
        </mxCell>
        <mxCell id="8QPdw4msQSsCbI8SWVOe-11" style="edgeStyle=orthogonalEdgeStyle;rounded=0;orthogonalLoop=1;jettySize=auto;html=1;exitX=1;exitY=0.5;exitDx=0;exitDy=0;entryX=0.5;entryY=1;entryDx=0;entryDy=0;strokeWidth=2;endArrow=blockThin;endFill=1;" parent="1" source="8QPdw4msQSsCbI8SWVOe-5" target="8QPdw4msQSsCbI8SWVOe-4" edge="1">
          <mxGeometry relative="1" as="geometry" />
        </mxCell>
        <mxCell id="8QPdw4msQSsCbI8SWVOe-5" value="&lt;font style=&quot;font-size: 22px&quot;&gt;/turtle1/cmd_vel&lt;/font&gt;" style="rounded=1;whiteSpace=wrap;html=1;" parent="1" vertex="1">
          <mxGeometry x="400" y="1140" width="200" height="40" as="geometry" />
        </mxCell>
        <mxCell id="8QPdw4msQSsCbI8SWVOe-13" style="edgeStyle=orthogonalEdgeStyle;rounded=0;orthogonalLoop=1;jettySize=auto;html=1;exitX=1;exitY=0.25;exitDx=0;exitDy=0;entryX=0.5;entryY=0;entryDx=0;entryDy=0;strokeWidth=2;endArrow=blockThin;endFill=1;" parent="1" source="8QPdw4msQSsCbI8SWVOe-6" target="8QPdw4msQSsCbI8SWVOe-4" edge="1">
          <mxGeometry relative="1" as="geometry" />
        </mxCell>
        <mxCell id="8QPdw4msQSsCbI8SWVOe-15" style="edgeStyle=orthogonalEdgeStyle;rounded=0;orthogonalLoop=1;jettySize=auto;html=1;exitX=0;exitY=0.75;exitDx=0;exitDy=0;entryX=1;entryY=1;entryDx=0;entryDy=0;strokeWidth=2;endArrow=blockThin;endFill=1;" parent="1" source="8QPdw4msQSsCbI8SWVOe-6" target="8QPdw4msQSsCbI8SWVOe-1" edge="1">
          <mxGeometry relative="1" as="geometry" />
        </mxCell>
        <mxCell id="8QPdw4msQSsCbI8SWVOe-6" value="&lt;font style=&quot;font-size: 22px&quot;&gt;/turtle1/set_pen&lt;/font&gt;" style="rounded=1;whiteSpace=wrap;html=1;" parent="1" vertex="1">
          <mxGeometry x="400" y="980" width="200" height="40" as="geometry" />
        </mxCell>
        <mxCell id="8QPdw4msQSsCbI8SWVOe-7" value="&lt;font style=&quot;font-size: 18px&quot;&gt;topic&lt;/font&gt;" style="text;html=1;strokeColor=none;fillColor=none;align=center;verticalAlign=middle;whiteSpace=wrap;rounded=0;" parent="1" vertex="1">
          <mxGeometry x="450" y="1110" width="110" height="20" as="geometry" />
        </mxCell>
        <mxCell id="8QPdw4msQSsCbI8SWVOe-8" value="&lt;font style=&quot;font-size: 18px&quot;&gt;service&lt;/font&gt;" style="text;html=1;strokeColor=none;fillColor=none;align=center;verticalAlign=middle;whiteSpace=wrap;rounded=0;" parent="1" vertex="1">
          <mxGeometry x="435" y="950" width="140" height="20" as="geometry" />
        </mxCell>
        <mxCell id="8QPdw4msQSsCbI8SWVOe-18" value="Ubuntu 20.04" style="text;html=1;strokeColor=none;fillColor=none;align=left;verticalAlign=middle;whiteSpace=wrap;rounded=0;fontSize=20;" parent="1" vertex="1">
          <mxGeometry x="710" y="900" width="140" height="20" as="geometry" />
        </mxCell>
        <mxCell id="8QPdw4msQSsCbI8SWVOe-19" value="ROS 2 Foxy" style="text;html=1;strokeColor=none;fillColor=none;align=left;verticalAlign=middle;whiteSpace=wrap;rounded=0;fontSize=20;" parent="1" vertex="1">
          <mxGeometry x="710" y="930" width="140" height="20" as="geometry" />
        </mxCell>
      </root>
    </mxGraphModel>
  </diagram>
</mxfile>
